<svg version="1.2" xmlns="http://www.w3.org/2000/svg" viewBox="0 0 1080 1080" width="1080" height="1080">
	<title>JSON Aerospace Logo Vectorized v2-svg</title>
	<style>
		.s0 { fill: #ffffff } 
		.s1 { fill: #505050 } 
		.s2 { fill: #606060 } 
		.s3 { fill: #a8a8a8 } 
		.s4 { fill: #b8b8b8 } 
		.s5 { fill: #e2e2e2 } 
		.s6 { fill: #e1e1e1 } 
		.s7 { fill: #ebebeb } 
		.s8 { fill: #f5f5f5 } 
	</style>
	<g id="Logo Vectorized Resize">
		<path id="Layer 11" class="s0" d="m505 259h72v392h-72z"/>
		<path id="Path 0" class="s1" d="m465.4 25.9c-8.8 1.4-26 4.7-38.1 7.4-12.1 2.7-31 7.6-41.9 10.9-11 3.3-27.8 9.2-37.3 13-9.6 3.8-28.4 12.6-42 19.4-13.5 6.9-32.5 17.6-42.3 23.7-9.8 6.2-26.2 17.5-36.5 25.2-10.2 7.7-27.4 22-38.1 31.8-10.7 9.8-23.6 22.3-28.6 27.8-5.1 5.5-16.1 18.4-24.4 28.7-8.4 10.2-21.5 28.2-29.2 39.8-7.7 11.7-18.4 29.2-23.6 39-5.3 9.8-13.7 26.9-18.7 38.1-4.9 11.2-11.8 28.4-15.2 38.1-3.4 9.8-8.8 27.8-11.9 39.9-3.2 12.1-7.3 31.1-9.2 42.3-1.9 11.2-4.2 28.4-5.2 38.2-1 9.7-1.8 32.6-1.8 50.8 0 18.2 0.8 40.7 1.7 50 1 9.3 3 24.6 4.5 33.9 1.4 9.3 4.1 23.4 5.9 31.3 1.9 8 5.7 22.4 8.5 32.2 2.9 9.8 8.2 25.8 11.9 35.6 3.7 9.8 13.4 31.5 21.7 48.3 9.1 18.6 21.6 40.4 32 55.9 9.4 14 25.3 35.4 35.5 47.5 10.1 12.1 26.8 29.8 36.9 39.4 10.2 9.6 18.9 17.4 19.4 17.4 0.5 0 7.2-19.7 15.1-43.7l14.2-43.6c-20.7-23.8-31.1-36.4-36.3-43.3-5.2-7-13.7-19.1-18.9-27-5.2-8-14-23.2-19.6-33.9-5.5-10.8-13.7-28.7-18.1-39.9-4.4-11.1-10.6-29.8-13.7-41.5-3.2-11.6-7.3-29.5-9.1-39.8-1.8-10.3-4.1-27.4-5.1-38.1-0.9-10.7-1.7-28.7-1.7-39.9 0-11.1 0.8-29.1 1.7-39.8 1-10.7 3.6-29.8 5.9-42.3 2.2-12.6 6.8-32.1 10.2-43.3 3.4-11.1 9.5-28.3 13.5-38.1 4-9.8 10.5-24.3 14.4-32.2 4-7.9 8.4-16.7 10-19.5 1.5-2.8 6.9-11.5 11.9-19.5 5-7.9 14.9-22 22-31.3 7.1-9.3 23.6-27.6 36.6-40.7 13.1-13.1 32.5-30.4 43.2-38.4 10.8-8.1 26.4-19 34.8-24.3 8.4-5.3 25.1-14.4 37.3-20.3 12.1-5.8 28.9-13.3 37.2-16.6 8.4-3.4 23.3-8.4 33.1-11.2 9.8-2.8 24.8-6.5 33.4-8.2l15.6-3c21-64.3 27.5-84.4 28-86 0.8-2.5-0.1-2.9-6.3-2.8-3.9 0.1-14.4 1.3-23.3 2.6zm119-0.6c0.5 1.1 6.9 20.4 14.1 42.8 7.3 22.3 14 41.5 15 42.5 1.1 1 8.4 3.1 16.3 4.8 7.9 1.6 22.4 5.2 32.2 8 9.8 2.9 26.2 8.6 36.4 12.8 10.3 4.2 28.2 12.4 39.9 18.3 11.6 5.9 30.3 16.8 41.5 24.3 11.2 7.4 27.6 19.5 36.4 27 8.9 7.4 24.5 22.2 34.8 32.8 10.3 10.6 24.3 26.5 31.1 35.3 6.9 8.9 16.5 22.2 21.5 29.7 4.9 7.5 14.6 25 21.6 39 6.9 14 15.5 32.6 18.9 41.5 3.5 8.9 8.8 24.9 11.9 35.6 3.1 10.7 6.9 26 8.4 33.9 1.5 7.9 3.9 23.9 5.2 35.6 1.4 11.6 2.5 34.9 2.5 51.6 0 16.8-1.1 40.1-2.5 51.7-1.3 11.7-4 28.8-6 38.2-1.9 9.3-5.7 24.5-8.4 33.9-2.7 9.3-8.3 25.3-12.4 35.5-4.1 10.3-11.5 26.7-16.4 36.5-5 9.8-13 24.2-17.9 32.2-4.9 7.9-15.2 22.8-22.9 33-7.7 10.3-16.8 21.7-20.1 25.4-3.3 3.7-8 8.6-10.3 11l-4.2 4.3c22.3 68.9 29.1 89 29.6 89 0.5 0 9.2-7.8 19.4-17.4 10.1-9.6 26.7-27.3 36.9-39.4 10.1-12.1 25.6-32.7 34.3-45.8 8.7-13 20.2-31.7 25.5-41.5 5.3-9.8 14.2-28.5 19.8-41.5 5.6-13.1 12.8-31.4 15.9-40.7 3.1-9.3 7.9-25.7 10.7-36.4 2.8-10.7 6.6-28.6 8.5-39.8 1.9-11.2 4.2-28.4 5.2-38.2 1-9.7 1.8-33 1.8-51.6 0-19.6-1.1-43.3-2.6-56-1.4-12.1-3.8-28.9-5.2-37.3-1.5-8.3-5.2-25.1-8.4-37.2-3.1-12.1-8-28.5-10.8-36.5-2.8-7.9-8.6-22.8-12.9-33-4.2-10.3-12.9-28.6-19.2-40.7-6.3-12.1-17.9-31.9-25.9-44-8-12.2-21.4-30.5-29.8-40.7-8.3-10.3-19.3-23.2-24.4-28.7-5-5.5-17.9-18-28.6-27.8-10.7-9.8-27.9-24.1-38.1-31.8-10.3-7.7-26.7-19-36.5-25.2-9.8-6.1-28.8-16.8-42.3-23.7-13.6-6.8-32.4-15.6-42-19.4-9.5-3.8-26.3-9.7-37.3-13-10.9-3.3-29.8-8.2-41.9-10.9-12.1-2.7-30-6.1-39.8-7.5-9.8-1.4-20.4-2.6-23.6-2.6-4 0-5.5 0.6-4.9 2.1zm136.9 909c-7 3.3-20.7 9-30.5 12.8-9.8 3.7-29.2 9.6-43.2 13.2-14 3.5-34.6 7.8-45.7 9.5-15.3 2.3-30.5 3.1-61.1 3.1-30.7 0.1-46-0.7-62.7-3.1-12.1-1.7-32.7-5.8-45.7-9-13.1-3.3-32.1-9-42.4-12.8-10.2-3.8-24.3-9.4-31.3-12.6-7-3.2-13.7-5.3-14.8-4.9-1.2 0.5-18 12.5-37.3 26.6-19.4 14.2-35.4 26-35.6 26.3-0.2 0.3 3.9 3.2 9.3 6.3 5.4 3.2 18.9 10.4 30.1 16 11.2 5.6 27.9 13.2 37.3 16.9 9.3 3.7 23 8.7 30.5 11.1 7.4 2.4 22.7 6.8 33.9 9.6 11.1 2.8 29.1 6.6 39.8 8.4 10.7 1.8 27.5 4.1 37.3 5.1 9.7 1 32.6 1.8 50.8 1.8 18.2 0 41.1-0.8 50.8-1.8 9.8-1 26.6-3.3 37.3-5.1 10.7-1.8 28.7-5.6 39.8-8.4 11.2-2.8 26.5-7.2 33.9-9.6 7.5-2.4 21.2-7.4 30.5-11.1 9.4-3.7 26.5-11.5 38.2-17.4 11.6-5.8 25.5-13.2 30.7-16.3l9.6-5.8c-57.9-42-75.2-54.3-75.7-54.5-0.6-0.1-6.8 2.4-13.8 5.7z"/>
		<path id="Path 0" class="s2" d="m465.4 25.9c-8.8 1.4-24.8 4.4-35.5 6.8-10.8 2.4-28.7 7-39.9 10.2-11.2 3.2-29.1 9.3-39.8 13.6-10.7 4.2-30.5 13.3-44.1 20.2-13.5 6.8-32.5 17.5-42.3 23.6-9.8 6.2-26.2 17.5-36.5 25.3-10.2 7.8-27.4 22-38.1 31.8-10.7 9.7-26.2 25.2-34.4 34.5-8.2 9.2-21.3 25.2-29.1 35.4-7.7 10.3-19.2 26.7-25.4 36.5-6.3 9.8-18.1 31.5-26.4 48.3-8.2 16.8-17.6 37.7-20.9 46.6-3.2 8.8-8.2 24.1-11 33.9-2.9 9.8-7.1 26.7-9.5 37.7-2.3 10.9-4.3 20.5-4.3 21.2-0.1 0.7 17.5 23.3 39 50.4l39.1 49.1c-0.1-23.6 0.7-39.3 1.6-50 1-10.7 3.6-29.8 5.9-42.3 2.2-12.6 6.8-32.1 10.2-43.3 3.4-11.1 9.5-28.3 13.5-38.1 4-9.8 10.4-24.3 14.3-32.2 3.8-7.9 7.7-15.5 8.5-16.9 0.8-1.4 5.2-8.7 9.7-16.1 4.4-7.5 15-22.7 23.3-33.9 8.6-11.4 25.7-30.8 39.1-44.1 13.1-13.1 32.5-30.4 43.2-38.4 10.8-8.1 26.4-19 34.8-24.3 8.4-5.3 25.1-14.4 37.3-20.3 12.1-5.8 28.9-13.3 37.2-16.6 8.4-3.4 23.3-8.4 33.1-11.2 9.8-2.8 24.8-6.5 33.4-8.2l15.6-3c21-64.3 27.5-84.4 28-86 0.8-2.5-0.1-2.9-6.3-2.8-3.9 0.1-14.4 1.3-23.3 2.6zm119-0.6c0.5 1.1 6.9 20.4 14.1 42.8 7.3 22.3 14 41.5 15 42.5 1.1 1 8.4 3.1 16.3 4.8 7.9 1.6 22.4 5.2 32.2 8 9.8 2.9 26.2 8.6 36.4 12.8 10.3 4.2 28.2 12.4 39.9 18.3 11.6 5.9 30.3 16.8 41.5 24.3 11.2 7.4 27.6 19.5 36.4 27 8.9 7.4 24.5 22.2 34.8 32.8 10.3 10.6 24.3 26.5 31.1 35.3 6.9 8.9 16.5 22.2 21.5 29.7 4.9 7.5 14.6 25 21.6 39 6.9 14 15.3 32.3 18.6 40.6 3.3 8.4 7.9 21.8 10.3 29.7 2.4 7.9 5.9 20.9 7.7 28.8 1.9 7.9 4.6 22.8 6.2 33.1 1.5 10.2 3.3 31.7 3.9 47.8l1.1 29.1c59.1-73.8 76.9-96.5 77.7-98 0.9-1.6 0-9.1-2.2-19.6-2-9.3-6.3-26.5-9.6-38.1-3.2-11.7-10.2-31.9-15.4-44.9-5.2-13.1-13.9-32.7-19.4-43.7-5.5-10.9-15-28.1-21.1-38.1-6.2-10-16.7-25.9-23.5-35.2-6.8-9.3-20.7-26.5-30.9-38.1-10.1-11.7-27.2-29.1-37.9-38.7-10.7-9.7-27.8-23.9-38-31.7-10.3-7.8-26.7-19.1-36.5-25.3-9.8-6.1-28.8-16.8-42.3-23.6-13.6-6.9-33.4-16-44.1-20.2-10.7-4.3-28.6-10.4-39.8-13.6-11.2-3.2-29.1-7.8-39.9-10.2-10.7-2.3-27.4-5.5-37.2-6.9-9.8-1.4-20.4-2.6-23.6-2.6-4 0-5.5 0.6-4.9 2.1zm136.9 909c-7 3.3-20.7 9-30.5 12.8-9.8 3.7-29.2 9.6-43.2 13.2-14 3.5-34.6 7.8-45.7 9.5-15.3 2.3-30.5 3.1-61.1 3.1-30.6 0.1-46.1-0.7-62.7-3.1-12.1-1.7-33.4-6-47.4-9.6-14-3.5-31.9-8.8-39.8-11.8-7.9-2.9-21.5-8.3-30.1-12-9.2-3.9-16.6-6.1-18-5.4-1.3 0.7-18 12.7-37.2 26.7-34.4 25.1-34.7 25.5-31.1 28.3 2 1.6 12.1 7.4 22.3 12.7 10.3 5.4 27.1 13.5 37.3 18 10.3 4.5 26.3 10.9 35.6 14.1 9.3 3.3 28.8 8.9 43.2 12.4 14.5 3.6 33.5 7.8 42.4 9.2 8.8 1.4 24.1 3.4 33.9 4.4 9.7 1 32.6 1.8 50.8 1.8 18.2 0 41.1-0.8 50.8-1.8 9.8-1 25.1-3 33.9-4.4 8.9-1.4 27.9-5.6 42.4-9.2 14.4-3.6 32.7-8.8 40.7-11.5 7.9-2.7 21.2-7.7 29.6-11.2 8.4-3.5 24-10.7 34.8-16.1 10.7-5.4 23.8-12.4 29-15.6l9.6-5.7c-57.9-42-75.2-54.3-75.7-54.5-0.6-0.1-6.8 2.4-13.8 5.7z"/>
		<path id="Path 0" class="s3" d="m414.6 220.3c-9.8 4-24.7 10.8-33 15.1-8.4 4.2-22.2 12.2-30.5 17.8-8.4 5.5-19.9 13.7-25.5 18.1-5.6 4.3-15.5 13.1-22 19.5-6.5 6.3-14.9 14.8-18.7 18.9-3.8 4.1-10.8 12.4-15.5 18.5-4.7 6-12.8 17.5-17.9 25.4-5.1 7.9-13.1 22-17.8 31.3-4.6 9.4-11.1 23.9-14.4 32.2-3.4 8.4-8.4 24.1-11.2 34.8-2.9 10.7-6.4 26.7-7.9 35.6-1.4 8.8-3 27.1-3.6 40.6-0.6 15-0.3 31.9 1 43.2 1.1 10.3 3.8 27.1 5.9 37.3 2.2 10.3 7.1 28.2 11 39.9 3.9 11.6 10.8 29 15.5 38.5 4.6 9.6 12.7 24 18 32.2 5.2 8.2 10.5 16.7 11.7 19.1 1.9 3.8 4-1.5 24.2-63.6l22.1-67.8c-5.2-24.9-7.2-42.5-7.7-55-0.7-14.3-0.3-29.6 1-40.7 1.1-9.8 3.8-24.7 5.9-33.1 2.2-8.3 6-20.5 8.6-27.1 2.6-6.5 7.3-17.2 10.5-23.7 3.2-6.5 9.1-16.8 13.2-22.9 4-6 13-17.5 19.9-25.4 6.9-7.9 17.2-18.2 22.8-22.9l10.3-8.4c10.9-34.2 20.7-64.5 28.8-89.4 8.1-24.9 14.4-45.3 13.9-45.3-0.4 0-8.8 3.3-18.6 7.3zm231.8-4.4c0.8 1.6 10.9 32 22.4 67.4 19 58.3 21.4 64.7 26.1 68.4 2.9 2.3 11.7 10.7 19.6 18.8 8 8.1 17.9 19.4 22.1 25.1 4.2 5.8 9.7 14.1 12.3 18.6 2.5 4.4 6.2 11.5 8.2 15.7 1.9 4.1 5.7 12.9 8.4 19.4 2.6 6.6 6.7 19.1 9.1 28 2.4 8.9 5.2 24.1 6.2 33.9 1.2 10.5 1.5 27.6 0.9 41.5-0.6 13.6-2.5 30.2-4.4 39l-3.4 15.2c42.4 129.9 44.5 135.2 46.4 131.4 1.2-2.4 6.5-10.9 11.7-19.1 5.3-8.2 13.4-22.6 18-32.2 4.7-9.5 11.6-26.9 15.5-38.5 3.9-11.7 8.8-29.6 11-39.9 2.1-10.2 4.8-27 5.9-37.3 1.3-11.3 1.6-28.2 1-43.2-0.6-13.5-2.2-31.8-3.6-40.6-1.5-8.9-5-24.9-7.9-35.6-2.8-10.7-7.8-26.4-11.2-34.8-3.3-8.3-10-23.2-14.9-33-4.9-9.8-13.4-24.7-19-33-5.5-8.4-13.7-19.9-18.1-25.5-4.3-5.6-13.1-15.5-19.5-22-6.3-6.5-14.8-14.9-18.9-18.7-4.1-3.8-12.4-10.8-18.5-15.5-6-4.7-17.5-12.8-25.4-17.9-7.9-5.1-22-13.1-31.3-17.8-9.4-4.6-24-11.2-32.7-14.6-8.6-3.4-16.1-6.2-16.6-6.2-0.5 0-0.2 1.4 0.6 3zm-161.1 610.2c-34.5 25.7-52.8 40.3-50.9 40.6 1.7 0.3 10.3 2.4 19.2 4.6 8.8 2.3 23.7 5.4 33 7.1 12.6 2.1 26.4 2.9 53.4 2.9 27.6 0 40.5-0.8 53.4-3.1 9.3-1.7 24.2-4.9 33-7.3 8.9-2.3 17.6-4.1 19.5-4 3 0.1 3.1-0.2 0.9-2.2-1.4-1.2-25.5-19.2-53.4-40-28-20.8-51.6-38-52.6-38.2-0.9-0.3-25.9 17.6-55.5 39.6z"/>
		<path id="Path 0" class="s4" d="m414.6 220.3c-9.8 4-24.7 10.8-33 15.1-8.4 4.2-22.2 12.2-30.5 17.8-8.4 5.5-19.9 13.7-25.5 18.1-5.6 4.3-15.5 13.1-22 19.5-6.5 6.3-14.9 14.8-18.7 18.9-3.8 4.1-10.8 12.4-15.5 18.5-4.7 6-12.8 17.5-17.9 25.4-5.1 7.9-13.1 22-17.8 31.3-4.6 9.4-11.1 23.9-14.4 32.2-3.4 8.4-8.4 24.1-11.2 34.8-2.9 10.7-6.4 26.7-7.9 35.6-1.4 8.8-3.1 28.6-3.6 44-0.6 15.4-0.3 30.6 0.5 33.7l1.4 5.7 105.6-91.1c5.7-18.3 10.6-30.9 14.4-39.8 3.9-8.8 10-21 13.7-27.1 3.7-6.1 10.2-15.6 14.4-21.2 4.3-5.6 13.2-15.5 19.7-22.1 6.5-6.6 14.6-14.2 17.9-17 5.7-4.7 7.1-8.1 26.9-69.3 11.6-35.4 21.5-65.8 22.1-67.4 0.7-1.6 0.7-2.9 0.2-2.9-0.6 0-9 3.3-18.8 7.3zm231.8-4.4c0.8 1.6 10.9 32 22.4 67.4 19 58.3 21.4 64.8 26.1 68.5 2.9 2.2 11.3 10.2 18.8 17.8 7.5 7.5 17.5 19 22.4 25.5 4.9 6.5 10.2 14.5 11.9 17.8 1.6 3.3 3.8 7.1 4.8 8.5 1 1.4 5 9.8 8.8 18.6 3.8 8.9 8.6 21.5 10.6 28l3.7 11.8 105.6 91.1c2.2-8.8 2.5-24 1.9-39.4-0.5-15.4-2.2-35.2-3.6-44-1.5-8.9-5-24.9-7.9-35.6-2.8-10.7-7.8-26.4-11.2-34.8-3.3-8.3-10-23.2-14.9-33-4.9-9.8-13.4-24.7-19-33-5.5-8.4-13.7-19.9-18.1-25.5-4.3-5.6-13.1-15.5-19.5-22-6.3-6.5-14.8-14.9-18.9-18.7-4.1-3.8-12.4-10.8-18.5-15.5-6-4.7-17.5-12.8-25.4-17.9-7.9-5.1-22-13.1-31.3-17.8-9.4-4.6-24-11.2-32.7-14.6-8.6-3.4-16.1-6.2-16.6-6.2-0.5 0-0.2 1.4 0.6 3zm-161.1 610.2c-34.5 25.7-52.8 40.3-50.9 40.6 1.7 0.3 10.3 2.4 19.2 4.6 8.8 2.3 23.7 5.4 33 7.1 12.6 2.1 26.4 2.9 53.4 2.9 27 0 40.6-0.8 52.5-2.9 8.9-1.6 23.8-4.8 33.1-7 9.3-2.3 18.4-4.4 20.1-4.7 2.2-0.3-13.8-13.2-50-40.1-29.2-21.8-53.9-39.9-54.9-40.1-0.9-0.3-25.9 17.6-55.5 39.6z"/>
		<path id="infil fix" fill-rule="evenodd" class="s5" d="m284.2 896.2l-0.4-0.3 1.8-2.9-0.8-0.5-1.7 2.7-0.4-0.3 10.2-11.8 1.5 1.3zm-1.4-0.6l0.9 0.5 0.1-0.2-0.7-0.7z"/>
		<path id="infil fix 2" class="s5" d="m791.8 890l1.5-1.3 5.3 5.9-1.5 1.4zm4.5 4.5l0.7-0.7 2.1 2.2-0.8 0.7z"/>
		<path id="Path 1" class="s5" d="m406.9 729.9c-64.3 84-117.8 154.5-119 156.8-1.7 3.3-1.7 3.9 0 3 1.2-0.6 5.2-3.6 8.9-6.6 3.8-2.9 21.7-16 39.8-29 18.2-13 72.7-52.1 121.2-86.9 75.1-53.9 88.6-63 91.1-61.4 1.6 1.1 51.6 39.1 111 84.4 59.4 45.4 114.4 87.5 122.2 93.7l14.2 11.1c-5.3-13.1-10.6-25.7-15.2-36.4l-8.3-19.5-215-262-34 0.2z"/>
		<path id="Path 0" class="s6" d="m540 655.2v53.4c197.3 144.5 255.9 187.1 257.4 187.9 1.5 0.9 0.7-0.7-1.7-3.4-2.5-2.7-59.2-67.4-126-143.8-66.9-76.4-123.5-140.9-125.7-143.2l-4-4.2z"/>
		<path id="Path 0" class="s7" d="m416.2 744.4c-67.5 77.1-125.4 143.2-128.7 147-3.3 3.7-4.7 6.1-3.2 5.2 1.5-0.9 59.6-43.1 129.2-93.9l126.3-92.4c0.2-82.1 0-105.9-0.3-105.9-0.2 0-55.7 63-123.3 140z"/>
		<path id="Layer 10" class="s0" d="m541 113.7h-1v-11.6h1z"/>
		<path id="Path 0" class="s8" d="m540.4 101.1c-0.3 0.5-58.8 179.7-130 398.2-71.2 218.6-129.1 397.6-128.7 397.8 0.4 0.3 59.1-66.3 130.4-147.8l129.6-148.3c-0.7-388.1-1.1-500.4-1.3-499.9z"/>
		<path id="Path 0" class="s0" d="m540 350.6v250.4c200.9 229.8 259.6 296.4 260 296.1 0.4-0.2-57.4-178.9-128.4-397.2-71-218.2-129.7-397.4-130.4-398.2-0.7-0.8-1.3 111.2-1.2 248.9z"/>
		<path id="Shape 5" class="s0" d="m540 103h1v498h-1z"/>
		<path id="Layer 13" class="s8" d="m539 108h1v493h-1z"/>
	</g>
</svg>